<?xml version="1.0" encoding="utf-8"?>

<svg xmlns="http://www.w3.org/2000/svg" xmlns:xlink="http://www.w3.org/1999/xlink" 
  height="512" width="512" viewBox="0 0 512 512">

  

  <path d="M256 256 V270 V242 M256 256 H270 H242" stroke="black" fill="white"></path>

  <text x="254" y="250" font-size="16" text-anchor="middle" fill="red">(256, 256)</text>

  <ellipse fill="#77DD47" stroke="#246614" stroke-width="5" cx="256" cy="270" rx="200" ry="150" opacity="0.2"/>

  <path d="M456 256 A200 140, 0, 0, 0, 56 256" stroke-width="10" stroke="#F00" fill="none" opacity="0.3"/>

  <circle id="c1" cx="456" cy="256" r="1" stroke="red" fill="none">
    <animate attributeName="r" to="10" dur="2s" repeatCount="indefinite"/>
  </circle>

  <circle id="c2" cx="56" cy="256" r="1" stroke="red" fill="none">
    <animate attributeName="r" to="10" dur="2s" repeatCount="indefinite"/>
  </circle>

  <circle cx="0" cy="0" r="1" stroke="blue" fill="none">
    <animateMotion dur="6s" path="M456 256 A200 140, 0, 0, 0, 56 256" repeatCount="indefinite" rotate="auto"/>
    <animate attributeName="r" to="15" dur="6s" repeatCount="indefinite"/>
  </circle>


 <path d="M56 256 A200 170, 0, 0, 0, 456 256" stroke-width="10" stroke="#F00" fill="none" opacity="0.3"/>

  <circle id="c1" cx="56" cy="456" r="1" stroke="red" fill="none">
    <animate attributeName="r" to="10" dur="2s" repeatCount="indefinite"/>
  </circle>

  <circle id="c2" cx="56" cy="256" r="1" stroke="red" fill="none">
    <animate attributeName="r" to="10" dur="2s" repeatCount="indefinite"/>
  </circle>

  <circle cx="0" cy="0" r="1" stroke="blue" fill="none">
    <animateMotion dur="6s" path="M56 256 A200 140, 0, 0, 0, 456 256" repeatCount="indefinite" rotate="auto"/>
    <animate attributeName="r" to="15" dur="6s" repeatCount="indefinite"/>
  </circle>

<ellipse fill="black" stroke="black" stroke-width="5" cx="148" cy="300" rx="14" ry="20"/>

<ellipse fill="black" stroke="black" stroke-width="5" cx="340" cy="300" rx="14" ry="20"/>

<ellipse fill="yellow" stroke="black" stroke-width="5" cx="256" cy="340" rx="24" ry="20"/>




</svg>
    