<?xml version="1.0" encoding="UTF-8" standalone="no"?>
<!-- Generator: Adobe Illustrator 24.0.1, SVG Export Plug-In . SVG Version: 6.00 Build 0)  -->

<svg
   version="1.1"
   id="Layer_1"
   x="0px"
   y="0px"
   width="1000px"
   height="1000px"
   viewBox="0 0 1000 1000"
   style="enable-background:new 0 0 1000 1000;"
   xml:space="preserve"
   sodipodi:docname="initEdit (Ofelia).svg"
   inkscape:version="1.2.1 (9c6d41e410, 2022-07-14)"
   xmlns:inkscape="http://www.inkscape.org/namespaces/inkscape"
   xmlns:sodipodi="http://sodipodi.sourceforge.net/DTD/sodipodi-0.dtd"
   xmlns="http://www.w3.org/2000/svg"
   xmlns:svg="http://www.w3.org/2000/svg"><defs
   id="defs993" /><sodipodi:namedview
   id="namedview991"
   pagecolor="#ffffff"
   bordercolor="#000000"
   borderopacity="0.25"
   inkscape:showpageshadow="2"
   inkscape:pageopacity="0.0"
   inkscape:pagecheckerboard="0"
   inkscape:deskcolor="#d1d1d1"
   showgrid="false"
   inkscape:zoom="0.814"
   inkscape:cx="572.48157"
   inkscape:cy="350.7371"
   inkscape:window-width="1920"
   inkscape:window-height="1001"
   inkscape:window-x="-9"
   inkscape:window-y="-9"
   inkscape:window-maximized="1"
   inkscape:current-layer="illustration"
   inkscape:lockguides="true" />
<g
   id="illustration"
   style="fill:#000000">
	
	
	
	
	
	
	
	
	
	
	
	
	
	
	
	
	
	
	
	
	
	
	
	
	
	
	
	
	
	
	
<path
   style="fill:#ffff00;stroke-width:0.938436"
   d="m 490.37549,84.561025 -34.56511,47.373235 -71.59905,18.30331 46.90974,47.37323 -2.46896,52.75655 64.19233,-20.45663 64.19233,16.14999 -8.64133,-58.13993 43.20639,-38.75985 -62.9578,-15.0733 z"
   id="path1230-71" /><path
   style="fill:#008000"
   d="m 407.70854,252.11765 -55.61973,56.92843 -70.61789,72.27949 63.86138,-2.97029 -54.80393,58.18688 -65.4931,69.53589 105.44555,-1.48515 -84.04741,63.54804 -98.62586,74.57077 304.27507,-1.43865 323.94278,-1.53165 -42.84434,-51.89595 -62.60123,-75.82682 66.83167,-1.48515 -45.7851,-67.86006 -37.38321,-55.40726 h 62.37621 l -59.42238,-66.58171 -63.84492,-71.5371 -90.87565,1.45401 z"
   id="path1228"
   sodipodi:nodetypes="ccccccccccccccccccccc" /><path
   style="fill:#ffffff"
   id="path1383"
   d="m 615.40905,283.36768 c -15.59392,0.52255 -31.04167,3.22357 -46.40388,5.79123 -16.79906,3.10838 -33.61086,6.13271 -50.45095,9.00957 -11.29185,2.07293 -22.51839,4.47122 -33.89549,6.04163 -8.74487,0.97875 -17.4729,2.09557 -26.21641,3.08442 -12.08116,1.46416 -24.1489,3.06075 -36.26148,4.25463 -14.29969,0.74643 -28.46095,2.66202 -42.63502,4.58317 -10.02981,1.55685 -20.06254,3.11229 -30.17417,4.03077 -4.84571,0.36126 -9.65346,1.16421 -14.43682,2.00959 -2.73198,0.50464 -5.48999,0.82169 -8.25566,1.06282 0,0 12.15854,8.65355 12.15854,8.65355 v 0 c 2.7687,-0.30096 5.52732,-0.67819 8.26517,-1.19494 4.74586,-0.82802 9.52453,-1.49804 14.31975,-1.96042 9.98754,-1.12236 19.89596,-2.80322 29.8259,-4.33758 14.17604,-1.9242 28.36362,-3.65628 42.65335,-4.50836 12.17846,-1.23565 24.32878,-2.73665 36.49073,-4.11369 8.73184,-0.97663 17.44574,-2.092 26.16512,-3.17282 11.33889,-1.65676 22.53734,-4.06393 33.79863,-6.16477 16.72291,-2.9615 33.39403,-6.19418 50.10113,-9.24177 15.54551,-2.56904 31.24322,-5.1665 47.04592,-5.03996 0,0 -12.09436,-8.78707 -12.09436,-8.78707 z" /><path
   style="fill:#ffffff"
   id="path1385"
   d="m 658.88684,414.52975 c -28.48746,4.48086 -57.11079,7.98368 -85.69071,11.80349 -28.3846,3.8908 -56.74428,7.97714 -85.20867,11.24859 -19.46002,1.91262 -38.94137,3.53892 -58.38969,5.56702 -12.5576,1.52815 -25.10658,3.08541 -37.67781,4.49423 -16.19166,1.61732 -32.43855,2.52095 -48.65208,3.87097 -18.36381,1.69898 -36.70768,3.58391 -55.0401,5.5911 -6.98142,0.79306 -13.98698,1.35833 -21.01157,1.53183 -2.41067,0.0286 -1.2345,0.0203 -3.52849,0.0263 0,0 12.09653,8.77056 12.09653,8.77056 v 0 c 2.28564,-0.0388 1.11452,-0.0118 3.51333,-0.0833 6.9274,-0.31138 13.82855,-1.01414 20.70523,-1.89941 18.21673,-2.29714 36.4729,-4.21377 54.77377,-5.71566 16.31623,-1.26198 32.65529,-2.21536 48.95378,-3.70898 12.52725,-1.3686 25.01084,-3.04501 37.51573,-4.604 19.31051,-2.14285 38.66514,-3.79784 57.98324,-5.87251 28.33746,-3.41236 56.58555,-7.4932 84.83843,-11.53783 28.94073,-3.90941 57.91267,-7.68679 86.93498,-10.92278 0,0 -12.1159,-8.55967 -12.1159,-8.55967 z" /><path
   style="fill:#ffffff"
   id="path1387"
   d="m 688.92134,540.76888 c -18.18625,3.4859 -36.73237,4.84972 -55.12396,6.9152 -24.07102,3.00679 -48.14316,5.94718 -72.30464,8.13083 -26.86875,2.60544 -53.78299,4.67655 -80.6386,7.41767 -23.68982,2.69486 -47.39897,5.10847 -71.14616,7.22861 -17.6824,1.70976 -35.43819,2.28773 -53.19126,2.58264 -13.22118,0.14608 -26.44377,0.13994 -39.66555,0.10014 -8.85082,-0.0634 -17.70164,-0.0769 -26.55259,-0.0954 -7.4294,0.0256 -14.8587,-0.0265 -22.28808,-0.0262 -3.25392,0.01 -6.50784,-2e-5 -9.76176,-0.003 0,0 11.96385,8.69222 11.96385,8.69222 v 0 c 3.25063,-0.004 6.50126,-0.0133 9.75189,-0.004 7.40903,6.7e-4 14.818,-0.0506 22.22704,-0.0169 8.79206,-0.006 17.5841,0.007 26.37616,-0.0324 13.17404,-0.0161 26.34913,0.0227 39.52138,-0.2407 17.69803,-0.39228 35.40583,-0.99107 53.0233,-2.82912 23.69217,-2.24042 47.3528,-4.73476 71.00699,-7.34625 26.85567,-2.78588 53.75399,-5.10554 80.65697,-7.38501 24.14847,-2.2251 48.21243,-5.17454 72.27398,-8.18511 18.6842,-2.03441 37.46144,-3.43258 56.03447,-6.34639 0,0 -12.16343,-8.55666 -12.16343,-8.55666 z" /><ellipse
   style="fill:#ff0000"
   id="path1493"
   cx="417.362"
   cy="385.78101"
   rx="24.50495"
   ry="23.762377" /><ellipse
   style="fill:#ff0000"
   id="path1495"
   cx="639.39172"
   cy="607.06812"
   rx="28.217821"
   ry="19.306931" /><ellipse
   style="fill:#00ffff"
   id="path1497"
   cx="635.67883"
   cy="334.54337"
   rx="20.049505"
   ry="21.534653" /><ellipse
   style="fill:#ff0000"
   id="path1499"
   cx="524.29272"
   cy="530.58301"
   rx="28.960396"
   ry="21.534653" /><ellipse
   style="fill:#00ffff"
   id="path1501"
   cx="434.44122"
   cy="289.98892"
   rx="14.851485"
   ry="14.108911" /><ellipse
   style="fill:#00ffff"
   id="path1503"
   cx="355.72833"
   cy="546.91962"
   rx="20.79208"
   ry="17.079208" /><path
   style="fill:#d40000"
   id="path1939"
   d="m 575.27861,421.62705 c 0.79097,-5.3028 2.13556,-10.49172 3.71724,-15.607 1.61182,-4.94254 4.92163,-8.83425 8.36576,-12.58749 3.07922,-2.60362 6.39279,-4.85707 9.71319,-7.12994 2.51524,-1.35289 5.55174,-5.46621 8.70524,-4.43564 3.9826,4.10679 -0.1014,-0.23698 -11.40969,-6.13705 -0.30201,-0.15757 0.4428,0.52824 0.58552,0.83754 0.76829,1.66491 0.76439,3.66289 0.90929,5.44681 0.23551,4.41943 0.19576,8.84821 0.17002,13.2722 -0.0462,4.37154 -0.008,8.74324 -0.0149,13.11492 0.005,4.69972 -0.0198,9.39941 -0.0183,14.09912 -0.0111,4.25955 -0.0149,8.51909 0.0119,12.77858 0.006,5.94367 0.0307,11.88723 0.0497,17.83089 0.0233,6.66766 0.004,13.33515 -0.039,20.00267 -0.0278,3.72413 -0.0447,7.44832 -0.0523,11.17254 -0.005,1.63443 0.005,3.26883 0.008,4.90326 0,0 13.30856,6.78107 13.30856,6.78107 v 0 c 0,-1.63178 0.013,-3.26354 0.01,-4.89532 -0.01,-3.742 -0.025,-7.48397 -0.052,-11.22588 -0.043,-6.68077 -0.062,-13.3615 -0.039,-20.04241 0.019,-5.92682 0.043,-11.85354 0.049,-17.78037 0.027,-4.25552 0.022,-8.5111 0.011,-12.76668 0,-4.70378 -0.023,-9.40756 -0.01,-14.11134 0,-4.36397 0.054,-8.72757 0.053,-13.09152 0,-4.45796 0.035,-8.91742 -0.1302,-13.37328 -0.5336,-9.23975 -1.4011,-13.25878 -15.49347,-15.70114 -3.56922,0.53355 -6.20604,3.43578 -9.14768,5.30938 -3.42884,2.30983 -6.85105,4.62726 -9.91358,7.42364 -3.52463,3.94922 -6.91355,8.07323 -8.6108,13.18465 -1.65436,5.17307 -2.92879,10.44094 -3.9858,15.7676 0,0 13.25019,6.96019 13.25019,6.96019 z" /><rect
   style="fill:#ffffff"
   id="rect2122"
   width="12.623762"
   height="15.222773"
   x="596.32239"
   y="450.38498" /><rect
   style="fill:#ffffff"
   id="rect2122-3"
   width="12.623762"
   height="15.222773"
   x="596.32245"
   y="408.98645" /><rect
   style="fill:#ffffff"
   id="rect2122-4"
   width="12.623762"
   height="15.222773"
   x="692.65472"
   y="-18.272959"
   transform="rotate(34.808048)"
   inkscape:transform-center-x="2.5990099"
   inkscape:transform-center-y="-4.0841584" /><rect
   style="fill:#ff00ff;stroke-width:0.908893"
   id="rect2159"
   width="56.435646"
   height="51.980198"
   x="404.73822"
   y="477.8602" /><rect
   style="fill:#ffd42a"
   id="rect2265"
   width="16.336634"
   height="51.60891"
   x="425.15906"
   y="477.86023" /><path
   style="fill:#ffd42a"
   id="path2420"
   d="m 415.57352,463.00605 c 1.35114,1.44647 2.70026,2.89623 3.98609,4.40137 0.65438,0.93117 1.52219,1.71015 2.14423,2.66137 0.44933,0.55494 0.90355,1.0679 1.18564,1.73278 0.20391,0.54647 0.65629,0.92446 0.92634,1.42809 0.0186,0.40088 0.28041,0.72722 0.37603,1.10436 0.21296,0.83998 -0.0965,-0.0909 0.15499,0.62436 0.1425,6.2e-4 0.0496,0.23714 0.14648,0.26215 0.12286,0.0317 0.0639,-0.17926 0.0447,-0.19353 -0.0673,-0.0503 -0.30151,-0.0458 -0.35139,-0.0483 -0.17067,-0.0702 -0.27563,-0.2483 -0.44262,-0.32162 -0.13657,-0.06 -0.29457,-0.0559 -0.43409,-0.10864 -0.29997,-0.11339 -0.53574,-0.29618 -0.79777,-0.47386 4.13854,2.36588 8.27707,4.73177 12.41561,7.09766 -0.2515,-0.0584 -0.47575,-0.32479 -0.75137,-0.27525 -0.0335,0.006 -0.0763,0.0194 -0.0884,0.0513 -0.009,0.0231 0.0232,0.062 0.0475,0.057 0.11694,-0.0238 0.22125,-0.0895 0.33188,-0.13431 1.38227,-0.45888 2.76541,-0.91099 4.18652,-1.23436 1.54731,-0.27372 3.08788,-0.64896 4.55201,-1.22373 0.99261,-0.44306 1.9478,-0.95316 2.80928,-1.61851 0.70143,-0.6549 1.49733,-1.19519 2.38237,-1.57007 0.68348,-0.25933 1.18806,-0.79225 1.78867,-1.17935 0.7154,-0.46108 -0.0944,0.14776 0.63644,-0.42666 0.27952,-0.38409 0.74374,-0.47559 1.10616,-0.73836 1.34218,-0.97316 -0.50981,0.28673 0.59105,-0.45367 0.16007,-0.2933 0.56054,-0.3652 0.72627,-0.65097 2.95176,-5.08975 -8.33904,-10.74026 -13.26513,-8.21512 -2.19061,0.92026 -4.2732,2.10066 -6.37331,3.21381 -2.30229,1.22353 -4.65384,2.35081 -6.97073,3.54457 -1.11419,0.42631 -2.11243,1.12408 -3.22715,1.53911 -0.84179,0.47681 -1.77389,0.86829 -2.75302,0.74983 -4.34441,-2.79826 -10.26423,-5.95798 10.87745,6.13935 0.21072,0.12058 -0.42459,-0.23586 -0.63183,-0.36232 -0.21644,-0.13207 -0.42584,-0.27534 -0.63876,-0.41302 -1.4798,-1.03319 -2.34076,-2.1402 -3.21645,-3.68693 -0.54991,-0.95009 -0.8522,-2.00295 -1.20317,-3.03424 -0.48844,-1.03681 -1.13319,-2.01478 -1.79406,-2.95305 -0.23246,-0.3418 -0.1948,-0.18027 -0.21717,-0.44768 0,0 -13.07356,-7.15967 -13.07356,-7.15967 v 0 c -0.40083,1.06278 -0.31401,0.52553 -0.29111,1.60649 0.55227,1.02583 0.048,0.1639 0.66523,1.03895 0.39002,0.55298 0.63618,1.20317 1.12458,1.68564 0.56899,1.01777 0.7863,2.17312 1.3148,3.21226 0.39024,0.77073 0.76062,1.60915 1.23035,2.33427 0.46655,0.7202 1.10938,1.32489 1.72022,1.91749 3.98603,3.63437 11.71459,7.01683 14.42243,8.54295 0.29555,0.16657 0.86397,0.29197 1.20197,0.30009 0.21484,0.005 0.42808,-0.0385 0.64212,-0.0578 1.07656,-0.25997 2.07854,-0.68588 3.07377,-1.1685 1.03297,-0.56912 2.05951,-1.15165 3.07449,-1.75228 2.22266,-1.28665 4.53411,-2.41241 6.79484,-3.62966 2.07363,-1.0712 4.17832,-2.24015 6.50123,-2.6523 5.30158,0.88567 -1.04586,-0.12284 -12.18657,-7.64043 -0.18093,-0.12209 0.27596,-0.33872 0.40175,-0.5171 0.0306,-0.0434 -0.0754,0.0748 -0.11485,0.11027 -0.25298,0.22716 -0.20985,0.18745 -0.45081,0.36936 -0.56276,0.42127 -1.19527,0.74251 -1.71095,1.22981 -0.71281,0.50524 -1.37558,1.08225 -2.19349,1.42105 -0.91619,0.50175 -1.77562,1.07324 -2.57537,1.74682 -0.7848,0.52426 -1.59668,1.01287 -2.48978,1.33247 -1.44228,0.47522 -2.9207,0.80956 -4.40234,1.1367 -1.54519,0.40972 -3.12151,0.81456 -4.55556,1.53239 -1.10106,0.80254 -1.8242,1.69251 -0.93762,2.96606 4.39244,2.52949 8.76403,5.09554 13.17732,7.58848 0.25358,0.14324 1.20271,0.29894 1.50094,0.30434 0.42327,0.008 0.52165,-0.0778 0.87959,-0.23598 0.82184,-0.43645 1.44781,-1.14072 1.36545,-2.12347 -0.0631,-0.16167 -0.18563,-0.29689 -0.2417,-0.46112 -0.12964,-0.37972 -0.0446,-0.83722 -0.35097,-1.15855 -0.0538,-0.43731 -0.0876,-0.97137 -0.3938,-1.32228 -0.0612,-0.0702 -0.16116,-0.10054 -0.21873,-0.17371 -0.0706,-0.0898 -0.10497,-0.20292 -0.15746,-0.30438 -0.48437,-0.56586 -0.53558,-1.41166 -1.1408,-1.89935 -0.59739,-0.66595 0.0734,0.12104 -0.52997,-0.74069 -0.51901,-0.74121 -1.25302,-1.32699 -1.79387,-2.05318 -1.19752,-1.50182 -2.56133,-2.85675 -3.77769,-4.3439 0,0 -13.76338,-5.82517 -13.76338,-5.82517 z" /></g>
<g
   id="skeleton_1_"
   sodipodi:insensitive="true"
   style="opacity:0.25">
	<circle
   id="rightShoulder"
   cx="392.79999"
   cy="294.29999"
   r="8.1999998" />
	<circle
   id="rightElbow"
   cx="289.29999"
   cy="294.39999"
   r="8.1999998" />
	
		<circle
   id="rightWrist"
   transform="matrix(0.9951,-0.09853767,0.09853767,0.9951,-29.0274,13.8698)"
   cx="125.9"
   cy="300.79999"
   r="8.1999998" />
	<circle
   id="rightHip"
   cx="443.10001"
   cy="510.10001"
   r="8.1999998" />
	<circle
   id="rightKnee"
   cx="449.5"
   cy="670.29999"
   r="8.1999998" />
	<circle
   id="rightAnkle"
   cx="449.5"
   cy="878.29999"
   r="8.1999998" />
	<circle
   id="leftShoulder"
   cx="605.70001"
   cy="294.29999"
   r="8.1999998" />
	<circle
   id="leftElbow"
   cx="710.09998"
   cy="294"
   r="8.1999998" />
	<circle
   id="leftWrist"
   cx="873.5"
   cy="300.29999"
   r="8.1999998" />
	<circle
   id="leftHip"
   cx="559.5"
   cy="509.29999"
   r="8.1999998" />
	<circle
   id="leftKnee"
   cx="559.5"
   cy="670.29999"
   r="8.1999998" />
	<circle
   id="leftAnkle"
   cx="559.5"
   cy="878.29999"
   r="8.1999998" />
	<polygon
   style="fill:none;stroke:#000000;stroke-miterlimit:10"
   points="443,510.4 559.4,509.6 605.6,294.6 392.7,294.6 "
   id="polygon886" />
	<polyline
   style="fill:none;stroke:#000000;stroke-miterlimit:10"
   points="391.7,294.6 289,294.6 125.7,300.9  "
   id="polyline888" />
	<polyline
   style="fill:none;stroke:#000000;stroke-miterlimit:10"
   points="607.1,294.2 710.3,294.2 873.6,300.6  "
   id="polyline890" />
	<polyline
   style="fill:none;stroke:#000000;stroke-miterlimit:10"
   points="443,510.4 449.4,670.6 449.4,878.6  "
   id="polyline892" />
	<polyline
   style="fill:none;stroke:#000000;stroke-miterlimit:10"
   points="559.4,509.6 559.4,670.6 559.4,878.6  "
   id="polyline894" />
	<circle
   id="rightEye0"
   cx="468.60001"
   cy="160.2"
   r="0.80000001" />
	<circle
   id="rightBrow1"
   cx="466.39999"
   cy="148.3"
   r="0.80000001" />
	<circle
   id="rightBrow4"
   cx="489.70001"
   cy="151.3"
   r="0.80000001" />
	<circle
   id="nose1"
   cx="497.60001"
   cy="161.2"
   r="0.80000001" />
	<circle
   id="rightBrow3"
   cx="479.89999"
   cy="147.3"
   r="0.80000001" />
	<circle
   id="rightEye1"
   cx="473.79999"
   cy="156.5"
   r="0.80000001" />
	<circle
   id="rightBrow0"
   cx="462.39999"
   cy="152"
   r="0.80000001" />
	<circle
   id="rightBrow2"
   cx="472.60001"
   cy="147.3"
   r="0.80000001" />
	<circle
   id="rightEye5"
   cx="473.79999"
   cy="162.5"
   r="0.80000001" />
	<circle
   id="rightEye2"
   cx="480.10001"
   cy="156.5"
   r="0.80000001" />
	<circle
   id="rightEye3"
   cx="485.29999"
   cy="160.7"
   r="0.80000001" />
	<circle
   id="nose0"
   cx="497.60001"
   cy="155.39999"
   r="0.80000001" />
	<circle
   id="nose3"
   cx="497.60001"
   cy="173.8"
   r="0.80000001" />
	<circle
   id="rightNose0"
   cx="486.89999"
   cy="178.3"
   r="0.80000001" />
	<circle
   id="rightMouthCorner"
   cx="480.89999"
   cy="200.39999"
   r="0.80000001" />
	<circle
   id="rightNose1"
   cx="492.10001"
   cy="178.3"
   r="0.80000001" />
	<circle
   id="rightUpperLipTop0"
   cx="487.79999"
   cy="197"
   r="0.80000001" />
	<circle
   id="nose2"
   cx="497.60001"
   cy="166.7"
   r="0.80000001" />
	<circle
   id="nose4"
   cx="497.60001"
   cy="179.10001"
   r="0.80000001" />
	<circle
   id="upperLipTopMid"
   cx="498.39999"
   cy="196.8"
   r="0.80000001" />
	<circle
   id="rightUpperLipTop1"
   cx="494.29999"
   cy="195.89999"
   r="0.80000001" />
	<path
   id="rightMiddleLip"
   d="m 484.5,199.9 c 0.4,0 0.8,0.4 0.8,0.8 0,0.4 -0.4,0.8 -0.8,0.8 -0.4,0 -0.8,-0.4 -0.8,-0.8 0,-0.4 0.4,-0.8 0.8,-0.8 z" />
	<circle
   id="lowerLipBottomMid"
   cx="498.39999"
   cy="210"
   r="0.80000001" />
	<circle
   id="upperLipBottomMid"
   cx="498.39999"
   cy="200.39999"
   r="0.80000001" />
	<circle
   id="lowerLipTopMid"
   cx="498.39999"
   cy="203.5"
   r="0.80000001" />
	<circle
   id="rightUpperLipBottom1"
   cx="494.5"
   cy="199.89999"
   r="0.80000001" />
	<circle
   id="rightLowerLipTop0"
   cx="494.5"
   cy="202.8"
   r="0.80000001" />
	<circle
   id="rightLowerLipBottom1"
   cx="494.29999"
   cy="209.5"
   r="0.80000001" />
	<circle
   id="rightLowerLipBottom0"
   cx="487.29999"
   cy="206.7"
   r="0.80000001" />
	<circle
   id="rightEye4"
   cx="480.10001"
   cy="161.7"
   r="0.80000001" />
	<circle
   id="jawMid"
   cx="498.39999"
   cy="235.8"
   r="0.80000001" />
	<circle
   id="rightJaw7"
   cx="483.39999"
   cy="232.60001"
   r="0.80000001" />
	<circle
   id="rightJaw6"
   cx="473.39999"
   cy="225.89999"
   r="0.80000001" />
	<circle
   id="rightJaw5"
   cx="461.79999"
   cy="213.39999"
   r="0.80000001" />
	<circle
   id="rightJaw4"
   cx="455"
   cy="193.39999"
   r="0.80000001" />
	<circle
   id="rightJaw3"
   cx="454.20001"
   cy="171.7"
   r="0.80000001" />
	<circle
   id="rightJaw2"
   cx="454.20001"
   cy="162.2"
   r="0.80000001" />
	<circle
   id="rightJaw1"
   cx="455"
   cy="150.5"
   r="0.80000001" />
	<circle
   id="rightJaw0"
   cx="457.5"
   cy="141.2"
   r="0.80000001" />
	<circle
   id="topMid"
   cx="498.60001"
   cy="115.1"
   r="0.80000001" />
	<circle
   id="leftTop0"
   cx="518.29999"
   cy="117.6"
   r="0.80000001" />
	<circle
   id="leftTop1"
   cx="530.90002"
   cy="127.1"
   r="0.80000001" />
	<circle
   id="leftEye0"
   cx="528.20001"
   cy="160.2"
   r="0.80000001" />
	<circle
   id="leftBrow1"
   cx="530.09998"
   cy="148.7"
   r="0.80000001" />
	<circle
   id="leftBrow4"
   cx="506.5"
   cy="150.8"
   r="0.80000001" />
	<circle
   id="leftBrow3"
   cx="516.5"
   cy="147.60001"
   r="0.80000001" />
	<circle
   id="leftEye1"
   cx="523"
   cy="156.5"
   r="0.80000001" />
	<circle
   id="leftBrow0"
   cx="534.09998"
   cy="151.60001"
   r="0.80000001" />
	<circle
   id="leftBrow2"
   cx="523.79999"
   cy="147.2"
   r="0.80000001" />
	<circle
   id="leftEye5"
   cx="523"
   cy="162.5"
   r="0.80000001" />
	<circle
   id="leftEye2"
   cx="516.70001"
   cy="156.5"
   r="0.80000001" />
	<circle
   id="leftEye3"
   cx="511.5"
   cy="160.7"
   r="0.80000001" />
	<circle
   id="leftNose0"
   cx="508"
   cy="178.3"
   r="0.80000001" />
	<circle
   id="leftMouthCorner"
   cx="515.90002"
   cy="200.39999"
   r="0.80000001" />
	<circle
   id="leftNose1"
   cx="503.20001"
   cy="178.3"
   r="0.80000001" />
	<circle
   id="leftUpperLipTop0"
   cx="509"
   cy="197"
   r="0.80000001" />
	<circle
   id="leftUpperLipTop1"
   cx="502.60001"
   cy="195.89999"
   r="0.80000001" />
	<path
   id="leftMiddleLip"
   d="m 512.3,199.9 c 0.4,0 0.8,0.4 0.8,0.8 0,0.4 -0.4,0.8 -0.8,0.8 -0.4,0 -0.8,-0.4 -0.8,-0.8 0,-0.4 0.4,-0.8 0.8,-0.8 z" />
	<circle
   id="leftUpperLipBottom1"
   cx="502.39999"
   cy="199.89999"
   r="0.80000001" />
	<circle
   id="leftLowerLipTop0"
   cx="502.39999"
   cy="202.8"
   r="0.80000001" />
	<circle
   id="leftLowerLipBottom1"
   cx="502.60001"
   cy="209.5"
   r="0.80000001" />
	<circle
   id="leftLowerLipBottom0"
   cx="509.5"
   cy="206.7"
   r="0.80000001" />
	<circle
   id="leftEye4"
   cx="516.70001"
   cy="161.7"
   r="0.80000001" />
	<circle
   id="leftJaw7"
   cx="513.20001"
   cy="233"
   r="0.80000001" />
	<circle
   id="leftJaw6"
   cx="523.20001"
   cy="226.3"
   r="0.80000001" />
	<circle
   id="leftJaw5"
   cx="534.79999"
   cy="213.7"
   r="0.80000001" />
	<circle
   id="leftJaw4"
   cx="541.59998"
   cy="193.7"
   r="0.80000001" />
	<circle
   id="leftJaw3"
   cx="542.40002"
   cy="172.10001"
   r="0.80000001" />
	<circle
   id="leftJaw2"
   cx="542.40002"
   cy="162.5"
   r="0.80000001" />
	<circle
   id="leftJaw1"
   cx="541.59998"
   cy="150.8"
   r="0.80000001" />
	<circle
   id="leftJaw0"
   cx="539.09998"
   cy="141.60001"
   r="0.80000001" />
	<polyline
   style="fill:none;stroke:#000000;stroke-miterlimit:10"
   points="498.4,115.1 478.6,117.6 466.1,127.1 457.5,141.2    455,150.5 454.2,162.2 454.2,171.7 455,193.4 461.8,213.4 473.4,225.9 483.4,232.6 498.4,235.8 513.2,233 523.2,226.3 534.8,213.7    541.6,193.7 542.4,172.1 542.4,162.5 541.6,150.8 539.1,141.6 530.9,127.1 518.3,117.6 498.4,115.1  "
   id="polyline967" />
	<polyline
   style="fill:none;stroke:#000000;stroke-miterlimit:10"
   points="462.4,152 466.4,148.3 472.6,147.3 479.9,147.3    489.7,151.3  "
   id="polyline969" />
	<polygon
   style="fill:none;stroke:#000000;stroke-miterlimit:10"
   points="473.8,156.5 480.1,156.5 485.3,160.7 480.1,161.7 473.8,162.5 468.6,160.2 "
   id="polygon971" />
	<polyline
   style="fill:none;stroke:#000000;stroke-miterlimit:10"
   points="486.9,178.3 492.1,178.3 497.6,179.1 497.6,173.8    497.6,166.7 497.6,161.2 497.6,155.4  "
   id="polyline973" />
	<polyline
   style="fill:none;stroke:#000000;stroke-miterlimit:10"
   points="533.9,151.6 529.9,148.7 523.6,147.2 516.3,147.6    506.3,150.8  "
   id="polyline975" />
	<polygon
   style="fill:none;stroke:#000000;stroke-miterlimit:10"
   points="522.7,156.5 516.4,156.5 511.3,160.7 516.4,161.7 522.7,162.5 528,160.2 "
   id="polygon977" />
	<polyline
   style="fill:none;stroke:#000000;stroke-miterlimit:10"
   points="508,178.3 503,178.3 497.6,179.1  "
   id="polyline979" />
	<polygon
   style="fill:none;stroke:#000000;stroke-miterlimit:10"
   points="487.8,197 494.3,195.9 498.4,196.8 502.6,195.9 509,197 515.9,200.4 509.5,206.7 502.4,209.5 498.4,210 494.3,209.5 487.3,206.7 480.9,200.4 "
   id="polygon981" />
	<polyline
   style="fill:none;stroke:#000000;stroke-miterlimit:10"
   points="480.9,200.4 484.5,200.7 494.5,199.9 498.4,200.4    502.4,199.9 512.3,200.7 515.9,200.4  "
   id="polyline983" />
	<polyline
   style="fill:none;stroke:#000000;stroke-miterlimit:10"
   points="480.9,200.4 484.5,200.7 494.5,202.8 498.4,203.6    502.4,202.8 512.3,200.7 515.9,200.4  "
   id="polyline985" />
	<circle
   id="rightTop0"
   cx="478.70001"
   cy="117.6"
   r="0.80000001" />
	<circle
   id="rightTop1"
   cx="466.10001"
   cy="127.1"
   r="0.80000001" />
</g>
</svg>
