<?xml version="1.0" encoding="UTF-8" standalone="no"?>
<!-- Generator: Adobe Illustrator 24.0.1, SVG Export Plug-In . SVG Version: 6.00 Build 0)  -->

<svg
   version="1.1"
   id="Layer_1"
   x="0px"
   y="0px"
   width="1000px"
   height="1000px"
   viewBox="0 0 1000 1000"
   style="enable-background:new 0 0 1000 1000;"
   xml:space="preserve"
   sodipodi:docname="initEdit (2).svg"
   inkscape:version="1.2.1 (9c6d41e410, 2022-07-14)"
   xmlns:inkscape="http://www.inkscape.org/namespaces/inkscape"
   xmlns:sodipodi="http://sodipodi.sourceforge.net/DTD/sodipodi-0.dtd"
   xmlns="http://www.w3.org/2000/svg"
   xmlns:svg="http://www.w3.org/2000/svg"><defs
   id="defs993" /><sodipodi:namedview
   id="namedview991"
   pagecolor="#ffffff"
   bordercolor="#000000"
   borderopacity="0.25"
   inkscape:showpageshadow="2"
   inkscape:pageopacity="0.0"
   inkscape:pagecheckerboard="0"
   inkscape:deskcolor="#d1d1d1"
   showgrid="false"
   inkscape:zoom="0.57558492"
   inkscape:cx="463.00727"
   inkscape:cy="416.09846"
   inkscape:window-width="1379"
   inkscape:window-height="847"
   inkscape:window-x="61"
   inkscape:window-y="25"
   inkscape:window-maximized="0"
   inkscape:current-layer="illustration" />
<g
   id="illustration"
   style="fill:#000000">
	
	
	
	
	
	
	
	
	
	
	
	
	
	
	
	
	
	
	
	
	
	
	
	
	
	
	
	
	
	
	
<path
   style="opacity:0.6;fill:#0000ff"
   d="m 320.83217,267.64735 c 35.42678,-0.3028 36.49389,-31.81216 66.01541,-31.99222 35.84319,-0.21862 76.21891,63.92888 104.23501,63.86116 41.83033,-0.1011 66.7861,-64.33479 93.84358,-64.19097 111.17643,0.59093 78.16653,63.59456 78.16653,63.59456 l 2.95352,29.36144 -20.67462,62.02386 -19.63221,58.89661 -28.66649,61.67639 83.43161,57.04472 62.80653,55.05264 60.46554,53.00065 33.05243,86.81964 -71.239,18.81559 -67.75287,6.76678 -81.65956,10.24927 -92.07197,27.57629 -121.6149,-1.97057 -90.34626,-31.49797 -76.4475,-15.79952 -60.80328,-33.25087 -2.31472,-57.73542 58.60707,-61.25099 46.79449,-48.90553 98.44728,-61.43999 -42.50541,-54.73329 -12.6188,-63.50107 -12.95094,-65.17244 z"
   id="path1604"
   sodipodi:nodetypes="csssccccccccccccccccccccccccc" /><path
   style="opacity:0.6;fill:#0000ff"
   d="m 637.03225,342.35396 c -12.95117,0 -2.73804,-5.71243 -8.68681,-8.68682 -0.35638,-0.17819 -4.96708,-0.24501 -5.21209,0 -0.4095,0.4095 0.4095,1.32787 0,1.73737 -2.76382,2.76382 -11.13509,0.7109 -13.89891,3.47472 -0.4095,0.4095 0.51799,1.47838 0,1.73737 -3.22849,1.61424 -18.90529,0 -22.58572,0 -23.16484,0 -46.32968,0 -69.49452,0 -13.31978,0 -26.67342,-0.949 -39.95935,0 -5.23084,0.37363 -10.39804,1.48792 -15.63627,1.73736 -30.04616,1.43077 -60.29672,-1.43077 -90.34288,0 -12.5069,0.59557 -27.3139,2.21018 -39.95935,3.47473 8.57515,1.09157 6.11448,19.17842 8.68681,24.32308 4.10208,8.20415 -0.91368,-10.60419 3.47473,6.94945 0.28091,1.12366 -0.51798,2.43876 0,3.47473 1.20058,2.40116 3.47473,4.04233 3.47473,6.94945"
   id="path1924" /><path
   style="opacity:0.6;fill:#0000ff"
   d="m 583.174,239.84954 c -2.046,6.65473 -5.70913,13.15561 -8.68682,19.11099 -0.77697,1.55395 0.54941,3.56389 0,5.21209 -0.68054,2.04164 -4.11395,1.91768 -5.21209,5.21209 -0.5494,1.64821 1.22851,3.98359 0,5.21209 -4.10207,4.10208 0.91369,-9.6905 -3.47472,3.47473 -0.18314,0.5494 0.4095,1.32786 0,1.73736 -0.819,0.819 -2.31649,0 -3.47473,0"
   id="path1926" /><path
   style="opacity:0.6;fill:#0000ff"
   d="m 430.28605,396.21222 c 35.82152,0.14844 70.75031,10.21644 105.97915,15.63627 6.96894,1.07214 40.75243,4.2678 46.9088,10.42417 0.91567,0.91568 0.8217,2.55906 1.73737,3.47473 0.819,0.819 2.65572,-0.819 3.47472,0 1.40892,1.40892 6.35389,9.23305 6.94946,10.42418 1.12963,2.25928 -1.80827,10.35328 0,12.16154 0.4095,0.4095 1.32786,-0.4095 1.73736,0 0.819,0.819 0,2.31649 0,3.47473 0,1.15824 1.14248,3.28431 0,3.47472 -4.21655,0.70276 -30.162,-0.62682 -31.27254,-1.73736 -1.47647,-1.47647 -1.84423,-3.90769 -3.47472,-5.21209 -1.98184,-1.58547 -14.70524,-3.34172 -15.63627,-3.47473 -8.99736,-1.28533 -18.93002,-1.70116 -27.79781,-3.47472 -6.47477,-1.29496 -12.62109,-3.99523 -19.11099,-5.21209 -2.84601,-0.53363 -5.79763,0.19261 -8.68682,0 -6.29755,-0.41984 -30.55829,-2.65752 -38.22199,-5.21209 -5.42287,-1.80762 0.57912,-1.15824 -1.73736,-3.47473 -0.4095,-0.4095 -1.32786,0.4095 -1.73736,0 -0.91568,-0.91567 -0.8217,-2.55905 -1.73737,-3.47472 -2.31648,-2.31649 -1.6671,3.6855 -3.47472,-1.73737 -0.36627,-1.0988 0.819,-2.65572 0,-3.47472 -2.07169,-2.07169 -7.98939,-2.7773 -10.42418,-5.21209 -0.57912,-1.15824 -1.15824,-2.31649 -1.73737,-3.47473 -0.57912,0 -1.32786,0.4095 -1.73736,0 -0.4095,-0.4095 0.4095,-1.32786 0,-1.73736 -2.67445,-2.67445 -7.74972,-4.275 -10.42418,-6.94945 -0.30865,-0.30865 -2.24108,-3.97844 -3.47472,-5.21209"
   id="path1928" /><path
   style="opacity:0.6;fill:#0000ff"
   d="m 362.52888,517.82764 c 3.47473,-2.31649 6.94946,-4.63297 10.42418,-6.94945 2.31649,0 4.83262,0.94081 6.94945,0 3.38859,-1.50604 5.48377,-5.08101 8.68682,-6.94946 12.11266,-7.06571 26.53289,-9.06312 39.95935,-12.16154 18.13834,-4.18577 35.24055,-9.83433 53.85826,-12.16154 4.85953,-0.60744 34.32397,-9.1101 36.48462,-6.94945 1.29179,1.29178 0.33887,12.54343 0,13.8989 -0.75638,3.02555 -5.8974,2.08002 -8.68681,3.47473 -4.98306,2.49152 -4.41229,8.08696 -5.21209,8.68681 -4.76994,3.57745 -10.03283,6.6492 -15.63627,8.68682 -3.31576,7.23608 -8.16405,0.84903 -12.16154,1.73736 -19.09623,4.24361 -38.17149,8.32924 -57.33298,12.16154 -1.79578,0.35916 -3.38708,1.58528 -5.21209,1.73737 -5.19409,0.43284 -10.43433,-0.32512 -15.63627,0 -4.08703,0.25544 -8.07695,1.4456 -12.16154,1.73736 -4.04355,0.28882 -8.26367,1.11368 -12.16155,0 -4.48937,-1.28268 -7.50627,-7.30755 -12.16154,-6.94945 -4.50975,0.3469 -6.74359,6.05783 -10.42418,8.68681 -0.47125,0.33661 -1.73736,0.57912 -1.73736,0 0,-0.819 1.05591,-1.28306 1.73736,-1.73736 3.99271,-2.66181 3.47473,-0.14481 3.47473,-3.47473"
   id="path1930" /><path
   style="opacity:0.6;fill:#0000ff"
   d="m 475.45749,529.98917 c 27.90223,15.94413 7.98544,4.8614 60.8077,31.27254 13.89891,6.94945 28.34,12.90653 41.69672,20.84836 16.36536,9.73075 38.69561,27.75797 48.64616,45.17144 0.57465,1.00563 -0.51798,2.43876 0,3.47472 0.73254,1.46508 2.74219,2.00966 3.47473,3.47473 0.53908,1.07816 0,5.41012 0,6.94945 0,1.36037 0.8669,7.81991 0,8.68682 -0.819,0.819 -2.37592,0.36626 -3.47473,0 -6.43059,-2.14353 -12.61842,-5.00169 -19.11099,-6.94946 -30.67161,-9.20148 0.30435,4.0232 -38.22199,-10.42417 -11.76484,-4.41182 -22.04551,-14.75704 -33.0099,-20.84836 -1.60088,-0.88938 -3.62204,-0.82876 -5.21209,-1.73736 -4.48182,-2.56105 -5.92639,-5.4502 -10.42417,-6.94946 -2.26525,-0.75508 -4.90195,-0.50886 -6.94946,-1.73736 -1.11041,-0.66625 -0.90835,-2.47992 -1.73736,-3.47473 -2.13341,-2.56009 -13.92232,-17.38534 -17.37363,-19.11099 -6.90236,-3.45118 -16.52415,-4.95453 -20.84836,-12.16154 -6.29222,-10.48704 0.91174,-0.73953 -1.73736,-8.68682 -0.25899,-0.77697 -1.3711,-1.00482 -1.73736,-1.73736 -1.67218,-3.34434 0,-12.11239 0,-15.63627"
   id="path1932" /><path
   style="opacity:0.6;fill:#0000ff"
   d="m 293.03436,620.33205 c 19.08385,-18.26174 44.21688,-27.29257 67.75716,-38.22198 40.48611,-18.79712 6.72927,-4.74341 36.48463,-13.89891 4.63795,-1.42706 10.5613,-4.48709 15.63626,-5.21209 10.72773,-1.53253 16.09952,0.69456 17.37363,12.16154 0.25582,2.30232 1.19183,4.96309 0,6.94946 -2.52823,4.21372 -6.64913,7.27831 -10.42417,10.42418 -23.2306,19.35882 -57.47815,18.37915 -85.1308,26.06044 -8.85185,2.45885 -19.82222,9.91111 -27.79781,13.89891 -4.54579,2.27289 -16.99953,6.26781 -22.58572,3.47472 -1.03596,-0.51798 0,-2.31648 0,-3.47472"
   id="path1934" /><path
   style="opacity:0.6;fill:#0000ff"
   d="m 527.57838,648.12986 c 36.34358,7.38292 76.63419,22.66255 104.24179,48.64617 6.40096,6.02444 12.02199,15.04826 19.11099,20.84836 3.85569,3.15465 8.27142,5.57472 12.16154,8.68681 1.9186,1.53488 3.07882,3.99308 5.21209,5.21209 2.07317,1.18467 5.08491,0.24573 6.94946,1.73737 2.1858,1.74864 1.73736,6.11872 1.73736,8.68681 0,0.57912 0.55628,1.89839 0,1.73736 -49.25236,-14.25726 -84.13187,-26.74539 -132.0396,-45.17144 -2.89476,-1.11337 -27.44339,-11.25394 -34.74726,-15.63626 -4.38331,-2.62999 -13.18934,-9.00505 -15.63627,-13.89891 -1.07887,-2.15775 -6.51978,-19.11099 -1.73736,-19.11099"
   id="path1936" /><path
   style="opacity:0.6;fill:#0000ff"
   d="m 298.24645,686.35186 c 9.29497,-9.21673 11.33836,-26.07865 24.32308,-31.27254 24.72478,-9.88991 91.20283,-23.70634 118.14069,-12.16154 5.79584,2.48393 17.37363,9.43776 17.37363,15.63627 0,9.84234 -26.69209,13.22404 -39.95935,15.63627 -9.18742,1.67044 -18.62468,1.72746 -27.79781,3.47472 -8.2832,1.57776 -16.00568,5.56322 -24.32308,6.94945 -11.09968,1.84995 -23.85871,-2.72213 -34.74726,0 -10.46635,2.61659 -21.94667,1.73737 -33.0099,1.73737 z"
   id="path1938" /><path
   style="opacity:0.6;fill:#0000ff"
   d="m 414.64978,738.47275 c 25.35421,4.2257 26.91695,4.98713 57.33298,6.94946 12.8513,0.82911 27.04909,0 39.95935,0 7.70577,0 17.14325,-1.85256 24.32308,1.73736 1.63801,0.819 0.44241,3.91713 1.73737,5.21209 3.91805,3.91805 0.44948,-12.93939 3.47472,5.21209 0.28562,1.71372 1.04242,3.8222 0,5.21209 -2.53106,3.37475 -14.21126,1.73736 -17.37363,1.73736 -12.37447,0 -28.11003,1.64816 -39.95935,-1.73736 -2.99867,-0.85677 -5.66127,-2.71834 -8.68681,-3.47473 -3.27033,-0.81758 -7.15385,0.81758 -10.42418,0 -3.55333,-0.88833 -6.87086,-2.58639 -10.42418,-3.47473 -4.28648,-1.07162 -9.53321,0.62368 -13.89891,0 -1.35057,-0.19294 -17.68171,-4.49745 -19.11099,-5.21209 -0.51798,-0.25899 0.4095,-1.32786 0,-1.73736 -1.29495,-1.29495 -4.53195,-0.037 -5.21209,-1.73736 -1.0967,-2.74175 -1.15824,-5.79121 -1.73736,-8.68682 z"
   id="path1940" /><path
   style="opacity:0.6;fill:#0000ff"
   d="m 378.16516,257.22317 c 12.03567,8.02378 29.45205,19.39197 39.95935,27.79781 3.83719,3.06975 7.78597,6.27842 10.42418,10.42418 1.58536,2.49129 0.92612,5.84748 1.73736,8.68681 2.31394,8.0988 1.01896,-1.43679 5.21209,6.94946 0.77697,1.55394 0,3.47472 0,5.21208 0,1.15825 1.03596,2.95675 0,3.47473 -10.27618,5.13809 -27.18131,-10.11593 -34.74726,-13.8989 -1.03597,-0.51799 -2.31649,0 -3.47473,0 -2.31648,-1.15825 -4.79452,-2.03811 -6.94945,-3.47473 -1.45262,-0.96841 -16.66409,-11.77029 -17.37363,-13.8989 -0.36627,-1.09881 0.43016,-2.39933 0,-3.47473 -3.96486,-9.91214 -2.68244,-1.09785 -5.21209,-8.68682 -0.73254,-2.19761 0.4543,-4.67795 0,-6.94945 -0.75115,-3.75573 -1.73737,-6.38995 -1.73737,-10.42418"
   id="path1942" /></g>
<g
   id="skeleton_1_"
   sodipodi:insensitive="true"
   style="opacity:0.25">
	<circle
   id="rightShoulder"
   cx="392.79999"
   cy="294.29999"
   r="8.1999998" />
	<circle
   id="rightElbow"
   cx="289.29999"
   cy="294.39999"
   r="8.1999998" />
	
		<circle
   id="rightWrist"
   transform="matrix(0.9951,-0.09853767,0.09853767,0.9951,-29.0274,13.8698)"
   cx="125.9"
   cy="300.79999"
   r="8.1999998" />
	<circle
   id="rightHip"
   cx="443.10001"
   cy="510.10001"
   r="8.1999998" />
	<circle
   id="rightKnee"
   cx="449.5"
   cy="670.29999"
   r="8.1999998" />
	<circle
   id="rightAnkle"
   cx="449.5"
   cy="878.29999"
   r="8.1999998" />
	<circle
   id="leftShoulder"
   cx="605.70001"
   cy="294.29999"
   r="8.1999998" />
	<circle
   id="leftElbow"
   cx="710.09998"
   cy="294"
   r="8.1999998" />
	<circle
   id="leftWrist"
   cx="873.5"
   cy="300.29999"
   r="8.1999998" />
	<circle
   id="leftHip"
   cx="559.5"
   cy="509.29999"
   r="8.1999998" />
	<circle
   id="leftKnee"
   cx="559.5"
   cy="670.29999"
   r="8.1999998" />
	<circle
   id="leftAnkle"
   cx="559.5"
   cy="878.29999"
   r="8.1999998" />
	<polygon
   style="fill:none;stroke:#000000;stroke-miterlimit:10"
   points="443,510.4 559.4,509.6 605.6,294.6 392.7,294.6 "
   id="polygon886" />
	<polyline
   style="fill:none;stroke:#000000;stroke-miterlimit:10"
   points="391.7,294.6 289,294.6 125.7,300.9  "
   id="polyline888" />
	<polyline
   style="fill:none;stroke:#000000;stroke-miterlimit:10"
   points="607.1,294.2 710.3,294.2 873.6,300.6  "
   id="polyline890" />
	<polyline
   style="fill:none;stroke:#000000;stroke-miterlimit:10"
   points="443,510.4 449.4,670.6 449.4,878.6  "
   id="polyline892" />
	<polyline
   style="fill:none;stroke:#000000;stroke-miterlimit:10"
   points="559.4,509.6 559.4,670.6 559.4,878.6  "
   id="polyline894" />
	<circle
   id="rightEye0"
   cx="468.60001"
   cy="160.2"
   r="0.80000001" />
	<circle
   id="rightBrow1"
   cx="466.39999"
   cy="148.3"
   r="0.80000001" />
	<circle
   id="rightBrow4"
   cx="489.70001"
   cy="151.3"
   r="0.80000001" />
	<circle
   id="nose1"
   cx="497.60001"
   cy="161.2"
   r="0.80000001" />
	<circle
   id="rightBrow3"
   cx="479.89999"
   cy="147.3"
   r="0.80000001" />
	<circle
   id="rightEye1"
   cx="473.79999"
   cy="156.5"
   r="0.80000001" />
	<circle
   id="rightBrow0"
   cx="462.39999"
   cy="152"
   r="0.80000001" />
	<circle
   id="rightBrow2"
   cx="472.60001"
   cy="147.3"
   r="0.80000001" />
	<circle
   id="rightEye5"
   cx="473.79999"
   cy="162.5"
   r="0.80000001" />
	<circle
   id="rightEye2"
   cx="480.10001"
   cy="156.5"
   r="0.80000001" />
	<circle
   id="rightEye3"
   cx="485.29999"
   cy="160.7"
   r="0.80000001" />
	<circle
   id="nose0"
   cx="497.60001"
   cy="155.39999"
   r="0.80000001" />
	<circle
   id="nose3"
   cx="497.60001"
   cy="173.8"
   r="0.80000001" />
	<circle
   id="rightNose0"
   cx="486.89999"
   cy="178.3"
   r="0.80000001" />
	<circle
   id="rightMouthCorner"
   cx="480.89999"
   cy="200.39999"
   r="0.80000001" />
	<circle
   id="rightNose1"
   cx="492.10001"
   cy="178.3"
   r="0.80000001" />
	<circle
   id="rightUpperLipTop0"
   cx="487.79999"
   cy="197"
   r="0.80000001" />
	<circle
   id="nose2"
   cx="497.60001"
   cy="166.7"
   r="0.80000001" />
	<circle
   id="nose4"
   cx="497.60001"
   cy="179.10001"
   r="0.80000001" />
	<circle
   id="upperLipTopMid"
   cx="498.39999"
   cy="196.8"
   r="0.80000001" />
	<circle
   id="rightUpperLipTop1"
   cx="494.29999"
   cy="195.89999"
   r="0.80000001" />
	<path
   id="rightMiddleLip"
   d="m 484.5,199.9 c 0.4,0 0.8,0.4 0.8,0.8 0,0.4 -0.4,0.8 -0.8,0.8 -0.4,0 -0.8,-0.4 -0.8,-0.8 0,-0.4 0.4,-0.8 0.8,-0.8 z" />
	<circle
   id="lowerLipBottomMid"
   cx="498.39999"
   cy="210"
   r="0.80000001" />
	<circle
   id="upperLipBottomMid"
   cx="498.39999"
   cy="200.39999"
   r="0.80000001" />
	<circle
   id="lowerLipTopMid"
   cx="498.39999"
   cy="203.5"
   r="0.80000001" />
	<circle
   id="rightUpperLipBottom1"
   cx="494.5"
   cy="199.89999"
   r="0.80000001" />
	<circle
   id="rightLowerLipTop0"
   cx="494.5"
   cy="202.8"
   r="0.80000001" />
	<circle
   id="rightLowerLipBottom1"
   cx="494.29999"
   cy="209.5"
   r="0.80000001" />
	<circle
   id="rightLowerLipBottom0"
   cx="487.29999"
   cy="206.7"
   r="0.80000001" />
	<circle
   id="rightEye4"
   cx="480.10001"
   cy="161.7"
   r="0.80000001" />
	<circle
   id="jawMid"
   cx="498.39999"
   cy="235.8"
   r="0.80000001" />
	<circle
   id="rightJaw7"
   cx="483.39999"
   cy="232.60001"
   r="0.80000001" />
	<circle
   id="rightJaw6"
   cx="473.39999"
   cy="225.89999"
   r="0.80000001" />
	<circle
   id="rightJaw5"
   cx="461.79999"
   cy="213.39999"
   r="0.80000001" />
	<circle
   id="rightJaw4"
   cx="455"
   cy="193.39999"
   r="0.80000001" />
	<circle
   id="rightJaw3"
   cx="454.20001"
   cy="171.7"
   r="0.80000001" />
	<circle
   id="rightJaw2"
   cx="454.20001"
   cy="162.2"
   r="0.80000001" />
	<circle
   id="rightJaw1"
   cx="455"
   cy="150.5"
   r="0.80000001" />
	<circle
   id="rightJaw0"
   cx="457.5"
   cy="141.2"
   r="0.80000001" />
	<circle
   id="topMid"
   cx="498.60001"
   cy="115.1"
   r="0.80000001" />
	<circle
   id="leftTop0"
   cx="518.29999"
   cy="117.6"
   r="0.80000001" />
	<circle
   id="leftTop1"
   cx="530.90002"
   cy="127.1"
   r="0.80000001" />
	<circle
   id="leftEye0"
   cx="528.20001"
   cy="160.2"
   r="0.80000001" />
	<circle
   id="leftBrow1"
   cx="530.09998"
   cy="148.7"
   r="0.80000001" />
	<circle
   id="leftBrow4"
   cx="506.5"
   cy="150.8"
   r="0.80000001" />
	<circle
   id="leftBrow3"
   cx="516.5"
   cy="147.60001"
   r="0.80000001" />
	<circle
   id="leftEye1"
   cx="523"
   cy="156.5"
   r="0.80000001" />
	<circle
   id="leftBrow0"
   cx="534.09998"
   cy="151.60001"
   r="0.80000001" />
	<circle
   id="leftBrow2"
   cx="523.79999"
   cy="147.2"
   r="0.80000001" />
	<circle
   id="leftEye5"
   cx="523"
   cy="162.5"
   r="0.80000001" />
	<circle
   id="leftEye2"
   cx="516.70001"
   cy="156.5"
   r="0.80000001" />
	<circle
   id="leftEye3"
   cx="511.5"
   cy="160.7"
   r="0.80000001" />
	<circle
   id="leftNose0"
   cx="508"
   cy="178.3"
   r="0.80000001" />
	<circle
   id="leftMouthCorner"
   cx="515.90002"
   cy="200.39999"
   r="0.80000001" />
	<circle
   id="leftNose1"
   cx="503.20001"
   cy="178.3"
   r="0.80000001" />
	<circle
   id="leftUpperLipTop0"
   cx="509"
   cy="197"
   r="0.80000001" />
	<circle
   id="leftUpperLipTop1"
   cx="502.60001"
   cy="195.89999"
   r="0.80000001" />
	<path
   id="leftMiddleLip"
   d="m 512.3,199.9 c 0.4,0 0.8,0.4 0.8,0.8 0,0.4 -0.4,0.8 -0.8,0.8 -0.4,0 -0.8,-0.4 -0.8,-0.8 0,-0.4 0.4,-0.8 0.8,-0.8 z" />
	<circle
   id="leftUpperLipBottom1"
   cx="502.39999"
   cy="199.89999"
   r="0.80000001" />
	<circle
   id="leftLowerLipTop0"
   cx="502.39999"
   cy="202.8"
   r="0.80000001" />
	<circle
   id="leftLowerLipBottom1"
   cx="502.60001"
   cy="209.5"
   r="0.80000001" />
	<circle
   id="leftLowerLipBottom0"
   cx="509.5"
   cy="206.7"
   r="0.80000001" />
	<circle
   id="leftEye4"
   cx="516.70001"
   cy="161.7"
   r="0.80000001" />
	<circle
   id="leftJaw7"
   cx="513.20001"
   cy="233"
   r="0.80000001" />
	<circle
   id="leftJaw6"
   cx="523.20001"
   cy="226.3"
   r="0.80000001" />
	<circle
   id="leftJaw5"
   cx="534.79999"
   cy="213.7"
   r="0.80000001" />
	<circle
   id="leftJaw4"
   cx="541.59998"
   cy="193.7"
   r="0.80000001" />
	<circle
   id="leftJaw3"
   cx="542.40002"
   cy="172.10001"
   r="0.80000001" />
	<circle
   id="leftJaw2"
   cx="542.40002"
   cy="162.5"
   r="0.80000001" />
	<circle
   id="leftJaw1"
   cx="541.59998"
   cy="150.8"
   r="0.80000001" />
	<circle
   id="leftJaw0"
   cx="539.09998"
   cy="141.60001"
   r="0.80000001" />
	<polyline
   style="fill:none;stroke:#000000;stroke-miterlimit:10"
   points="498.4,115.1 478.6,117.6 466.1,127.1 457.5,141.2    455,150.5 454.2,162.2 454.2,171.7 455,193.4 461.8,213.4 473.4,225.9 483.4,232.6 498.4,235.8 513.2,233 523.2,226.3 534.8,213.7    541.6,193.7 542.4,172.1 542.4,162.5 541.6,150.8 539.1,141.6 530.9,127.1 518.3,117.6 498.4,115.1  "
   id="polyline967" />
	<polyline
   style="fill:none;stroke:#000000;stroke-miterlimit:10"
   points="462.4,152 466.4,148.3 472.6,147.3 479.9,147.3    489.7,151.3  "
   id="polyline969" />
	<polygon
   style="fill:none;stroke:#000000;stroke-miterlimit:10"
   points="473.8,156.5 480.1,156.5 485.3,160.7 480.1,161.7 473.8,162.5 468.6,160.2 "
   id="polygon971" />
	<polyline
   style="fill:none;stroke:#000000;stroke-miterlimit:10"
   points="486.9,178.3 492.1,178.3 497.6,179.1 497.6,173.8    497.6,166.7 497.6,161.2 497.6,155.4  "
   id="polyline973" />
	<polyline
   style="fill:none;stroke:#000000;stroke-miterlimit:10"
   points="533.9,151.6 529.9,148.7 523.6,147.2 516.3,147.6    506.3,150.8  "
   id="polyline975" />
	<polygon
   style="fill:none;stroke:#000000;stroke-miterlimit:10"
   points="522.7,156.5 516.4,156.5 511.3,160.7 516.4,161.7 522.7,162.5 528,160.2 "
   id="polygon977" />
	<polyline
   style="fill:none;stroke:#000000;stroke-miterlimit:10"
   points="508,178.3 503,178.3 497.6,179.1  "
   id="polyline979" />
	<polygon
   style="fill:none;stroke:#000000;stroke-miterlimit:10"
   points="487.8,197 494.3,195.9 498.4,196.8 502.6,195.9 509,197 515.9,200.4 509.5,206.7 502.4,209.5 498.4,210 494.3,209.5 487.3,206.7 480.9,200.4 "
   id="polygon981" />
	<polyline
   style="fill:none;stroke:#000000;stroke-miterlimit:10"
   points="480.9,200.4 484.5,200.7 494.5,199.9 498.4,200.4    502.4,199.9 512.3,200.7 515.9,200.4  "
   id="polyline983" />
	<polyline
   style="fill:none;stroke:#000000;stroke-miterlimit:10"
   points="480.9,200.4 484.5,200.7 494.5,202.8 498.4,203.6    502.4,202.8 512.3,200.7 515.9,200.4  "
   id="polyline985" />
	<circle
   id="rightTop0"
   cx="478.70001"
   cy="117.6"
   r="0.80000001" />
	<circle
   id="rightTop1"
   cx="466.10001"
   cy="127.1"
   r="0.80000001" />
</g>
</svg>
